<svg width="87" height="59" viewBox="0 0 87 59" fill="none" xmlns="http://www.w3.org/2000/svg">
<path d="M32.897 4.24668C39.5717 4.24668 45.2841 8.13054 47.5708 13.6141C49.9017 10.9094 53.4774 9.17778 57.4858 9.17778C64.3283 9.17778 69.9083 14.2161 70.2085 20.5325C70.3056 20.5325 70.4027 20.5325 70.491 20.5325C76.8302 20.5325 81.9776 25.3317 81.9776 31.2605C81.9776 37.1811 76.8391 41.9885 70.491 41.9885C68.1778 41.9885 66.0235 41.3536 64.2224 40.2486C64.2665 40.6279 64.293 41.0073 64.293 41.3948C64.293 46.8207 59.5871 51.2158 53.7776 51.2158C49.6545 51.2158 46.0787 48.9976 44.3571 45.7569C44.154 45.7899 43.9421 45.8147 43.739 45.8394C42.5294 50.9437 37.6646 54.7616 31.8287 54.7616C25.0921 54.7616 19.6358 49.6655 19.6358 43.3739C19.6358 42.6894 19.6976 42.0215 19.8212 41.3701C18.6293 41.7659 17.349 41.972 16.007 41.972C9.66779 41.972 4.52046 37.1729 4.52046 31.244C4.52046 25.3234 9.65896 20.516 16.007 20.516C16.422 20.516 16.8281 20.5407 17.2343 20.5737C17.1725 20.0377 17.1371 19.4853 17.1371 18.9328C17.1548 10.827 24.2004 4.24668 32.897 4.24668ZM32.897 0C30.16 0 27.5024 0.503005 24.995 1.49252C22.5758 2.44906 20.4127 3.80964 18.5498 5.54955C16.6869 7.28945 15.2301 9.31796 14.2059 11.5691C13.4731 13.1853 12.9963 14.8675 12.7668 16.5909C11.7514 16.7888 10.7538 17.0774 9.7914 17.4567C7.88433 18.2071 6.17149 19.2873 4.69704 20.6644C3.2226 22.0415 2.07482 23.6412 1.26255 25.4224C0.423793 27.2777 0 29.232 0 31.2523C0 33.2725 0.423793 35.2351 1.26255 37.0822C2.06599 38.8633 3.2226 40.463 4.69704 41.8401C6.17149 43.2172 7.88433 44.2892 9.7914 45.0478C11.5749 45.7487 13.4554 46.1445 15.389 46.2105C15.6097 47.3237 15.9541 48.4122 16.4308 49.4594C17.2696 51.323 18.4792 52.9887 20.0154 54.4235C21.5517 55.8583 23.344 56.988 25.3305 57.7713C27.3965 58.5877 29.5861 59 31.8463 59C33.7975 59 35.7134 58.6867 37.541 58.0682C39.3068 57.4745 40.9402 56.6087 42.397 55.4955C43.4123 54.7203 44.3306 53.8463 45.1252 52.8815C45.3282 53.0134 45.5401 53.1454 45.752 53.269C48.1535 54.6873 50.9347 55.446 53.7953 55.446C55.826 55.446 57.7948 55.0749 59.6578 54.341C61.4501 53.6319 63.0569 52.6176 64.4431 51.3312C65.8204 50.0449 66.9064 48.5358 67.6657 46.8619C67.7893 46.5898 67.9041 46.3177 68.01 46.0373C68.8311 46.161 69.6611 46.2187 70.4998 46.2187C72.6629 46.2187 74.7642 45.8229 76.7419 45.0396C78.649 44.2892 80.3618 43.2089 81.8363 41.8319C83.3107 40.4548 84.4585 38.8551 85.2708 37.0739C86.1095 35.2268 86.5333 33.2643 86.5333 31.244C86.5333 29.2238 86.1095 27.2612 85.2708 25.4141C84.4673 23.633 83.3107 22.0333 81.8363 20.6562C80.3618 19.2791 78.649 18.2071 76.7419 17.4485C75.8855 17.1104 75.0115 16.8465 74.1197 16.6569C73.8725 15.857 73.5635 15.0654 73.1838 14.2985C72.2745 12.4597 71.0207 10.8105 69.4492 9.40866C67.8776 7.9986 66.0588 6.89364 64.0458 6.12676C61.9621 5.3269 59.7549 4.92285 57.4858 4.92285C56.1526 4.92285 54.8283 5.06303 53.5392 5.3434C52.2855 5.61551 51.0583 6.02781 49.9017 6.55556C49.5132 6.72872 49.1336 6.92662 48.7627 7.13277C47.5355 5.69797 46.0964 4.43634 44.4718 3.38085C41.0638 1.17093 37.0643 0 32.897 0Z" fill="white"/>
</svg>
